<svg xmlns="http://www.w3.org/2000/svg" viewBox="0 0 32 32"><defs><linearGradient id="g" x1="0" y1="0" x2="1" y2="1"><stop offset="0" stop-color="#818cf8"/><stop offset="1" stop-color="#c084fc"/></linearGradient></defs><circle cx="16" cy="16" r="14" fill="url(#g)"/><path d="M11 10c-2 0-3 1.5-3 3 0 1 .4 1.8 1 2.4-.6.6-1 1.4-1 2.4 0 1.6 1.3 3 3 3M21 10c2 0 3 1.5 3 3 0 1-.4 1.8-1 2.4.6.6 1 1.4 1 2.4 0 1.6-1.3 3-3 3M16 8v16" stroke="#fff" stroke-width="1.6" fill="none" stroke-linecap="round"/></svg>
